<svg preserveAspectRatio="none" width="100%" height="100%" overflow="visible" style="display: block;" viewBox="0 0 30 30" fill="none" xmlns="http://www.w3.org/2000/svg">
<g id="circle-arrow-right">
<path id="Subtract" fill-rule="evenodd" clip-rule="evenodd" d="M14.6667 8.13901e-05C6.56657 8.13901e-05 8.13901e-05 6.56657 8.13901e-05 14.6667C8.13901e-05 22.7669 6.56657 29.3334 14.6667 29.3334C22.7669 29.3334 29.3334 22.7669 29.3334 14.6667C29.3334 6.56657 22.7669 8.13901e-05 14.6667 8.13901e-05ZM14.6667 17.3334H6.66675V12.0001H14.6667V9.33342C14.6667 8.79413 14.9916 8.30795 15.4898 8.10158C15.9881 7.8952 16.5616 8.00928 16.9429 8.39061L20.3906 11.8383L20.4419 11.8896C20.8418 12.2894 21.2304 12.6778 21.5078 13.0414C21.8205 13.4513 22.1145 13.9819 22.1145 14.6667C22.1145 15.3516 21.8205 15.8822 21.5078 16.2921C21.2304 16.6557 20.8418 17.0441 20.4419 17.4439L20.4419 17.4439L20.3906 17.4952L16.9429 20.9429C16.5616 21.3242 15.9881 21.4383 15.4898 21.2319C14.9916 21.0255 14.6667 20.5394 14.6667 20.0001V17.3334Z" fill="white"/>
</g>
</svg>
