<svg preserveAspectRatio="none" width="100%" height="100%" overflow="visible" style="display: block;" viewBox="0 0 57 42" fill="none" xmlns="http://www.w3.org/2000/svg">
<g id="crown">
<path id="Union" fill-rule="evenodd" clip-rule="evenodd" d="M30.5187 1.08182C30.0337 0.402932 29.2508 2.03252e-05 28.4165 2.03252e-05C27.5822 2.03252e-05 26.7993 0.402932 26.3144 1.08182L14.9834 16.9452L4.19697 8.31611C3.42153 7.69576 2.35914 7.57481 1.4641 8.00499C0.569067 8.43516 -0.000163217 9.34031 -0.000163217 10.3334V18.0834V18.2724V18.2724C-0.000232508 22.983 -0.000288367 26.7798 0.401197 29.7661C0.818031 32.8664 1.70978 35.4769 3.78304 37.5501C5.85631 39.6234 8.46677 40.5152 11.5671 40.932C14.5533 41.3335 18.3502 41.3334 23.0607 41.3334H23.0608H23.2498H33.5832H33.7722H33.7723C38.4828 41.3334 42.2797 41.3335 45.2659 40.932C48.3662 40.5152 50.9767 39.6234 53.05 37.5501C55.1232 35.4769 56.015 32.8664 56.4318 29.7661C56.8333 26.7798 56.8333 22.9829 56.8332 18.2723V18.0834V10.3334C56.8332 9.34031 56.2639 8.43516 55.3689 8.00499C54.4739 7.57481 53.4115 7.69576 52.636 8.31611L41.8497 16.9452L30.5187 1.08182Z" fill="white"/>
</g>
</svg>
