<svg preserveAspectRatio="none" width="100%" height="100%" overflow="visible" style="display: block;" viewBox="0 0 47 57" fill="none" xmlns="http://www.w3.org/2000/svg">
<g id="document">
<path id="Subtract" fill-rule="evenodd" clip-rule="evenodd" d="M12.7466 2.66954e-05L12.9167 3.28545e-05H33.5834L33.7534 2.66954e-05C36.0435 -0.000102031 38.0167 -0.000212597 39.5968 0.212229C41.2902 0.439903 42.9135 0.953328 44.2301 2.26996C45.5467 3.58658 46.0601 5.20982 46.2878 6.90324C46.5003 8.48337 46.5002 10.4566 46.5 12.7467L46.5 12.9167V43.9167L46.5 44.0867C46.5002 46.3768 46.5003 48.35 46.2878 49.9302C46.0601 51.6236 45.5467 53.2468 44.2301 54.5634C42.9135 55.8801 41.2902 56.3935 39.5968 56.6212C38.0167 56.8336 36.0435 56.8335 33.7534 56.8334L33.5834 56.8334H12.9167L12.7467 56.8334C10.4566 56.8335 8.48336 56.8336 6.90322 56.6212C5.2098 56.3935 3.58656 55.8801 2.26994 54.5634C0.953308 53.2468 0.439883 51.6236 0.212209 49.9302C-0.000232989 48.35 -0.000122423 46.3769 6.30313e-06 44.0868L1.24623e-05 43.9167V12.9167L6.30313e-06 12.7466C-0.000122423 10.4565 -0.000232989 8.48336 0.212209 6.90324C0.439883 5.20982 0.953308 3.58658 2.26994 2.26996C3.58656 0.953328 5.2098 0.439903 6.90322 0.212229C8.48334 -0.000212597 10.4565 -0.000102031 12.7466 2.66954e-05ZM12.9167 20.6667H23.25V15.5H12.9167V20.6667ZM12.9167 25.8334V31H33.5833V25.8334H12.9167ZM12.9167 41.3334V36.1667H33.5833V41.3334H12.9167Z" fill="white"/>
</g>
</svg>
