<svg preserveAspectRatio="none" width="100%" height="100%" overflow="visible" style="display: block;" viewBox="0 0 100 91" fill="none" xmlns="http://www.w3.org/2000/svg">
<g id="group">
<path id="Union" fill-rule="evenodd" clip-rule="evenodd" d="M36.3335 8.15392e-05C25.0462 8.15392e-05 15.896 9.15026 15.896 20.4376C15.896 31.7249 25.0462 40.8751 36.3335 40.8751C47.6208 40.8751 56.771 31.7249 56.771 20.4376C56.771 9.15026 47.6208 8.15392e-05 36.3335 8.15392e-05Z" fill="white"/>
<path id="Union_2" fill-rule="evenodd" clip-rule="evenodd" d="M74.9377 18.1667C66.1586 18.1667 59.0418 25.2836 59.0418 34.0626C59.0418 42.8416 66.1586 49.9584 74.9377 49.9584C83.7167 49.9584 90.8335 42.8416 90.8335 34.0626C90.8335 25.2836 83.7167 18.1667 74.9377 18.1667Z" fill="white"/>
<path id="Union_3" fill-rule="evenodd" clip-rule="evenodd" d="M29.9752 45.4167C13.4204 45.4167 0.00016284 58.837 0.00016284 75.3917C0.00016284 83.9199 6.91364 90.8334 15.4418 90.8334H57.2252C65.7534 90.8334 72.6668 83.9199 72.6668 75.3918C72.6668 58.837 59.2466 45.4167 42.6918 45.4167H29.9752Z" fill="white"/>
<path id="Subtract" fill-rule="evenodd" clip-rule="evenodd" d="M77.2085 54.5001C76.5541 54.5001 76.1538 55.2242 76.4827 55.7899C79.8321 61.5513 81.7502 68.2475 81.7502 75.3917C81.7502 80.9104 79.9274 86.0032 76.8511 90.1012C76.6275 90.3991 76.836 90.8334 77.2085 90.8334H87.2002C94.2234 90.8334 99.9168 85.14 99.9168 78.1167V77.2084C99.9168 64.6669 89.75 54.5001 77.2085 54.5001Z" fill="white"/>
</g>
</svg>
