<svg preserveAspectRatio="none" width="100%" height="100%" overflow="visible" style="display: block;" viewBox="0 0 94 82" fill="none" xmlns="http://www.w3.org/2000/svg">
<g id="megaphone">
<path id="Union" fill-rule="evenodd" clip-rule="evenodd" d="M88.3885 2.15672C85.3785 -0.0954414 81.9237 -0.262012 78.5169 0.222477C75.2859 0.681954 71.2933 1.85644 66.5667 3.24686L66.5667 3.24687L66.254 3.33886L28.004 14.5889L27.7841 14.6535L27.784 14.6535C25.0339 15.4622 22.6275 16.1698 20.7166 16.9828C18.652 17.8612 16.7521 19.0246 15.2914 20.9769C13.8293 22.9309 13.25 25.0861 12.9903 27.3174C12.7497 29.3844 12.7498 31.8996 12.75 34.7763L12.75 35.0053L12.75 35.2343C12.7498 38.111 12.7497 40.6262 12.9903 42.6932C13.25 44.9245 13.8293 47.0797 15.2914 49.0338C16.7521 50.986 18.6521 52.1495 20.7166 53.0278C22.6275 53.8408 25.034 54.5485 27.7841 55.3571L28.004 55.4218L66.254 66.6718L66.5667 66.7638C71.2933 68.1542 75.2859 69.3287 78.5169 69.7882C81.9237 70.2727 85.3785 70.1061 88.3885 67.8539C91.3984 65.6018 92.5331 62.3343 93.0296 58.9292C93.5004 55.6999 93.5002 51.5381 93.5 46.6112L93.5 46.2853V23.7254L93.5 23.3995C93.5002 18.4725 93.5004 14.3108 93.0296 11.0814C92.5331 7.67636 91.3984 4.40888 88.3885 2.15672Z" fill="white"/>
<path id="Vector 124 (Stroke)" fill-rule="evenodd" clip-rule="evenodd" d="M-1.19209e-07 45.6303V24.3803H8.5V45.6303H-1.19209e-07Z" fill="white"/>
<path id="Subtract" d="M25.5229 59.1225C22.4037 58.2051 19.4515 60.9873 20.1826 64.1554L21.975 71.9228C23.3033 77.6786 28.4285 81.7558 34.3356 81.7558C42.3407 81.7558 48.3446 74.4322 46.7746 66.5826L-nan -nanL46.7746 66.5826C46.6166 65.7924 46.0333 65.155 45.2602 64.9276L25.5229 59.1225Z" fill="white"/>
</g>
</svg>
