<svg preserveAspectRatio="none" width="100%" height="100%" overflow="visible" style="display: block;" viewBox="0 0 57 57" fill="none" xmlns="http://www.w3.org/2000/svg">
<g id="favorite">
<path id="Union" d="M28.4167 3.20375e-07C26.6991 3.20375e-07 25.5949 1.01746 25.0278 1.65962C24.5227 2.23154 24.0228 2.99779 23.5831 3.67178L16.6743 14.249L4.97969 17.866C4.23657 18.0953 3.37101 18.3624 2.68229 18.6965C1.86261 19.0943 0.676646 19.8745 0.191708 21.4404C-0.284298 22.9776 0.225798 24.2803 0.641576 25.0614C1.00173 25.7381 1.54104 26.4726 2.01754 27.1217L9.50203 37.3279L9.16411 50.2173C9.14217 51.0386 9.11767 51.9556 9.20434 52.7162C9.30104 53.5648 9.60806 54.9774 10.9226 55.9795C12.281 57.015 13.7593 56.8934 14.6368 56.7114C15.3842 56.5564 16.2349 56.2383 16.963 55.9661L28.4167 51.6926L39.8702 55.9661C40.5984 56.2383 41.4491 56.5564 42.1966 56.7114C43.074 56.8934 44.5523 57.015 45.9107 55.9795C47.2253 54.9774 47.5323 53.5648 47.629 52.7162C47.7156 51.9556 47.6912 51.0386 47.6692 50.2173L47.3313 37.3279L54.8158 27.1217C55.2923 26.4726 55.8316 25.7381 56.1917 25.0614C56.6075 24.2803 57.1176 22.9776 56.6416 21.4404C56.1567 19.8745 54.9707 19.0943 54.151 18.6965C53.4623 18.3624 52.5968 18.0953 51.8537 17.866L40.159 14.249L33.2502 3.67185C32.8105 2.99784 32.3106 2.23155 31.8055 1.65963C31.2384 1.01747 30.1342 3.20375e-07 28.4167 3.20375e-07Z" fill="white"/>
</g>
</svg>
