<svg preserveAspectRatio="none" width="100%" height="100%" overflow="visible" style="display: block;" viewBox="0 0 55 55" fill="none" xmlns="http://www.w3.org/2000/svg">
<g id="flag">
<path id="Vector 150 (Stroke)" fill-rule="evenodd" clip-rule="evenodd" d="M5 0V55H0V0H5Z" fill="white"/>
<path id="Union" fill-rule="evenodd" clip-rule="evenodd" d="M1.57152 5.17881L2.5 7.5H0V37.5H2.5L3.42848 39.8212C9.5188 37.3851 12.004 36.4292 14.5621 36.3545C14.854 36.3459 15.146 36.3459 15.4379 36.3545C17.996 36.4292 20.4812 37.3851 26.5715 39.8212L29.0055 40.7948L29.279 40.9042C32.5312 42.2054 34.5155 42.9994 36.583 43.3579C38.8441 43.7499 41.1559 43.7499 43.417 43.3579C45.4845 42.9994 47.4688 42.2054 50.721 40.9042L50.9945 40.7948L51.1705 40.7249C51.8081 40.4726 52.607 40.1565 53.2482 39.6086C53.9328 39.0236 54.4468 38.2645 54.7357 37.4116C55.0063 36.6128 55.0031 35.7536 55.0005 35.0679L55 34.8786V12.1493L55.0004 11.957C55.0022 11.3236 55.0044 10.5743 54.8411 9.9421C54.2108 7.50191 51.8629 5.91228 49.3631 6.23331C48.7155 6.31648 48.0205 6.59681 47.4332 6.83373L47.2548 6.90551C45.5523 7.58648 44.8563 7.86187 44.173 8.05976C41.447 8.84931 38.553 8.84931 35.827 8.05976C35.1437 7.86187 34.4477 7.58648 32.7452 6.90551L28.4285 5.17881L27.9676 4.9944L27.9676 4.99439C22.4871 2.80122 19.1365 1.46035 15.5838 1.3566C15.1947 1.34523 14.8053 1.34523 14.4162 1.3566C10.8635 1.46035 7.51287 2.80122 2.03241 4.9944L1.57152 5.17881Z" fill="white"/>
</g>
</svg>
