<svg preserveAspectRatio="none" width="100%" height="100%" overflow="visible" style="display: block;" viewBox="0 0 88 87" fill="none" xmlns="http://www.w3.org/2000/svg">
<g id="home">
<path id="Subtract" fill-rule="evenodd" clip-rule="evenodd" d="M33.0425 3.43788C36.4508 1.32878 39.7555 -7.87526e-05 43.5422 -7.87526e-05C47.329 -7.87526e-05 50.6337 1.32878 54.042 3.43788C57.312 5.46146 61.025 8.43196 65.601 12.0929L65.797 12.2497L73.7137 18.583L74.397 19.1293C79.572 23.2646 83.1707 26.1404 85.1305 30.2181C87.0903 34.2957 87.0878 38.9023 87.0842 45.5266L87.0839 46.4015V50.9734V51.2629C87.084 58.4807 87.0841 64.2986 86.4689 68.8743C85.8302 73.6248 84.4639 77.6247 81.2871 80.8015C78.1103 83.9783 74.1104 85.3447 69.3598 85.9834C64.7841 86.5986 58.9663 86.5985 51.7484 86.5984H51.4589H35.6256H35.3361C28.1182 86.5985 22.3004 86.5986 17.7247 85.9834C12.9741 85.3447 8.97421 83.9783 5.79743 80.8015C2.62065 77.6247 1.25426 73.6248 0.615565 68.8743C0.000383155 64.2986 0.000470901 58.4808 0.000579903 51.263L0.000582734 50.9734V46.4015L0.000267525 45.5267C-0.00333803 38.9023 -0.00584559 34.2957 1.95396 30.2181C3.91376 26.1404 7.51252 23.2646 12.6875 19.1293L13.3708 18.583L21.2875 12.2497L21.4836 12.0928C26.0596 8.43192 29.7725 5.46145 33.0425 3.43788ZM31.6671 66.8067H55.4171V58.89H31.6671V66.8067Z" fill="white"/>
</g>
</svg>
