<svg preserveAspectRatio="none" width="100%" height="100%" overflow="visible" style="display: block;" viewBox="0 0 98 97" fill="none" xmlns="http://www.w3.org/2000/svg">
<g id="earth">
<path id="Union" fill-rule="evenodd" clip-rule="evenodd" d="M48.5835 0C21.7517 0 0.00016284 21.5463 0.00016284 48.125C0.00016284 74.7037 21.7517 96.25 48.5835 96.25C75.4153 96.25 97.1668 74.7037 97.1668 48.125C97.1668 21.5463 75.4153 0 48.5835 0ZM84.8408 64.2883C85.7997 62.1809 84.6563 59.7877 82.4892 58.9304L75.6799 56.2367C71.1633 54.4471 66.2502 57.742 66.2502 62.5607V63.5766C66.2502 69.7729 61.6505 75.0262 55.4581 75.9025C52.6929 76.2938 50.5202 78.446 50.1252 81.1851C49.9325 82.5214 49.6251 83.904 49.4335 85.2797C49.265 86.4902 50.2739 87.4838 51.5042 87.3953C66.3843 86.3249 78.9925 77.1406 84.8408 64.2883ZM16.4972 71.3716C17.4513 72.6616 19.0974 73.2171 20.6805 72.9035L22.7081 72.5018C29.2397 71.2078 32.9433 64.3182 30.3814 58.2277C27.4845 51.3406 32.5927 43.7505 40.1248 43.7505H44.1668C51.4846 43.7505 57.4168 37.8742 57.4168 30.6255V30.231C57.4168 25.1102 54.4961 20.4289 49.8723 18.1388L37.0913 11.7928C36.0211 11.2614 34.7739 11.172 33.6645 11.6173C19.1037 17.4616 8.8335 31.6052 8.8335 48.125C8.8335 56.82 11.6787 64.8568 16.4972 71.3716Z" fill="white"/>
</g>
</svg>
