<svg preserveAspectRatio="none" width="100%" height="100%" overflow="visible" style="display: block;" viewBox="0 0 40 40" fill="none" xmlns="http://www.w3.org/2000/svg">
<g id="circle-arrow-right">
<path id="Subtract" fill-rule="evenodd" clip-rule="evenodd" d="M19.7083 -8.13603e-05C8.82373 -8.13603e-05 1.01924e-05 8.82364 1.01924e-05 19.7083C1.01924e-05 30.5929 8.82373 39.4166 19.7083 39.4166C30.593 39.4166 39.4167 30.5929 39.4167 19.7083C39.4167 8.82364 30.593 -8.13603e-05 19.7083 -8.13603e-05ZM19.7083 23.2916H8.95834V16.1249H19.7083V12.5416C19.7083 11.8169 20.1449 11.1636 20.8144 10.8863C21.4839 10.609 22.2545 10.7623 22.7669 11.2747L27.3998 15.9076L27.4687 15.9765C28.0061 16.5136 28.5283 17.0356 28.901 17.5242C29.3213 18.0749 29.7162 18.7879 29.7162 19.7083C29.7162 20.6286 29.3213 21.3416 28.901 21.8923C28.5283 22.3809 28.0061 22.9029 27.4687 23.44L27.4687 23.44L27.3998 23.509L22.7669 28.1418C22.2545 28.6542 21.4839 28.8075 20.8144 28.5302C20.1449 28.2529 19.7083 27.5996 19.7083 26.8749V23.2916Z" fill="white"/>
</g>
</svg>
