<svg preserveAspectRatio="none" width="100%" height="100%" overflow="visible" style="display: block;" viewBox="0 0 47 57" fill="none" xmlns="http://www.w3.org/2000/svg">
<g id="archive">
<path id="Subtract" fill-rule="evenodd" clip-rule="evenodd" d="M12.9167 3.26384e-05L12.7466 2.64793e-05C10.4565 -0.000102247 8.48336 -0.000212813 6.90324 0.212229C5.20982 0.439903 3.58658 0.953328 2.26995 2.26995C0.953327 3.58658 0.439902 5.20982 0.212228 6.90324C-0.000213588 8.48336 -0.000103035 10.4565 2.56908e-05 12.7466L3.18499e-05 12.9167V45.8902L1.58361e-05 46.0727C-0.000209897 47.7884 -0.000416224 49.3564 0.1812 50.5795C0.37483 51.8834 0.867909 53.4871 2.45042 54.4651C4.03293 55.4432 5.68781 55.167 6.94071 54.7571C8.11586 54.3725 9.51819 53.6711 11.0527 52.9036L11.2159 52.822L11.7614 52.5493C12.3682 52.2459 12.6759 52.0946 12.9049 52.0044L12.9167 51.9998L12.9284 52.0044C13.1575 52.0946 13.4652 52.2459 14.072 52.5493L19.7841 55.4053C19.8604 55.4435 19.9388 55.4832 20.0193 55.524C20.8904 55.9652 22.0024 56.5284 23.25 56.5284C24.4977 56.5284 25.6097 55.9652 26.4807 55.524C26.5612 55.4832 26.6397 55.4435 26.7159 55.4053L32.4281 52.5493C33.0349 52.2459 33.3426 52.0946 33.5716 52.0044L33.5834 51.9998L33.5951 52.0044C33.8241 52.0946 34.1319 52.2459 34.7387 52.5493L35.2841 52.822L35.4474 52.9036C36.9819 53.6711 38.3842 54.3725 39.5594 54.7571C40.8122 55.167 42.4671 55.4432 44.0496 54.4651C45.6322 53.4871 46.1252 51.8834 46.3189 50.5795C46.5005 49.3564 46.5003 47.7885 46.5 46.0728V46.0727L46.5 45.8902V12.9167L46.5 12.7467C46.5002 10.4566 46.5003 8.48337 46.2878 6.90324C46.0602 5.20982 45.5467 3.58658 44.2301 2.26995C42.9135 0.953328 41.2902 0.439903 39.5968 0.212229C38.0167 -0.000212813 36.0435 -0.000102247 33.7534 2.64793e-05L33.5834 3.26384e-05H12.9167ZM25.8333 12.9167V7.75002H20.6667V13.0238C17.0013 13.6388 14.2083 16.8266 14.2083 20.6667C14.2083 24.9469 17.6781 28.4167 21.9583 28.4167H24.5417C25.9684 28.4167 27.125 29.5733 27.125 31C27.125 32.4268 25.9684 33.5834 24.5417 33.5834H15.5V38.75H20.6667V43.9167H25.8333V38.6429C29.4987 38.0279 32.2917 34.8401 32.2917 31C32.2917 26.7198 28.8219 23.25 24.5417 23.25H21.9583C20.5316 23.25 19.375 22.0934 19.375 20.6667C19.375 19.24 20.5316 18.0834 21.9583 18.0834H31V12.9167H25.8333Z" fill="white"/>
</g>
</svg>
