<svg preserveAspectRatio="none" width="100%" height="100%" overflow="visible" style="display: block;" viewBox="0 0 103 83" fill="none" xmlns="http://www.w3.org/2000/svg">
<g id="scales">
<path id="Vector 367 (Stroke)" fill-rule="evenodd" clip-rule="evenodd" d="M74.6668 82.2329H28.0002V72.8996H74.6668V82.2329Z" fill="white"/>
<path id="Vector 368 (Stroke)" fill-rule="evenodd" clip-rule="evenodd" d="M56.0002 5.23293V77.5663H46.6668V5.23293H56.0002Z" fill="white"/>
<path id="Vector 369 (Stroke)" fill-rule="evenodd" clip-rule="evenodd" d="M60.1879 10.7702C54.4404 8.85433 48.2266 8.85432 42.4791 10.7701L15.8383 19.6504C12.0315 20.9194 8.04509 21.5663 4.03243 21.5663H0.00016284V12.2329H4.03243C7.04192 12.2329 10.0317 11.7477 12.8868 10.7961L39.5277 1.91577C47.191 -0.638663 55.476 -0.63866 63.1393 1.91577L89.7802 10.7961C92.6353 11.7477 95.6251 12.2329 98.6346 12.2329H102.667V21.5663H98.6346C94.6219 21.5663 90.6355 20.9194 86.8287 19.6504L60.1879 10.7702Z" fill="white"/>
<path id="Union" fill-rule="evenodd" clip-rule="evenodd" d="M84.0002 16.8996L87.8974 14.3327C87.0341 13.0219 85.5697 12.2329 84.0002 12.2329C82.4306 12.2329 80.9662 13.0219 80.1029 14.3327L84.0002 16.8996ZM84.0002 16.8996C87.8974 14.3327 87.8977 14.3331 87.898 14.3335L87.8989 14.3349L87.9016 14.339L87.9108 14.353L87.9442 14.4039L88.0681 14.5938C88.1754 14.7585 88.3308 14.9982 88.5275 15.3042C88.9207 15.9161 89.4797 16.7942 90.1492 17.8696C91.486 20.0166 93.2748 22.9678 95.0698 26.1662C96.8563 29.3495 98.6923 32.8544 100.095 36.0933C101.404 39.1156 102.667 42.6254 102.667 45.536C102.667 55.696 94.1025 63.5663 84.0002 63.5663C73.8978 63.5663 65.3335 55.696 65.3335 45.536C65.3335 42.6254 66.5964 39.1156 67.9053 36.0933C69.308 32.8544 71.1441 29.3495 72.9306 26.1662C74.7255 22.9678 76.5144 20.0166 77.8511 17.8696C78.5206 16.7942 79.0796 15.9161 79.4728 15.3042C79.6695 14.9982 79.8249 14.7585 79.9322 14.5938L80.0562 14.4039L80.0895 14.353L80.0987 14.339L80.1014 14.3349L80.1023 14.3335C80.1026 14.3331 80.1029 14.3327 84.0002 16.8996Z" fill="white"/>
<path id="Union_2" fill-rule="evenodd" clip-rule="evenodd" d="M18.6668 16.8996L22.5641 14.3327C21.7008 13.0219 20.2364 12.2329 18.6668 12.2329C17.0973 12.2329 15.6329 13.0219 14.7696 14.3327L18.6668 16.8996ZM18.6668 16.8996C22.5641 14.3327 22.5644 14.3331 22.5647 14.3335L22.5655 14.3349L22.5683 14.339L22.5775 14.353L22.6108 14.4039L22.7348 14.5938C22.8421 14.7585 22.9975 14.9982 23.1942 15.3042C23.5874 15.9161 24.1464 16.7942 24.8159 17.8696C26.1526 20.0166 27.9414 22.9678 29.7364 26.1662C31.5229 29.3495 33.359 32.8544 34.7617 36.0933C36.0706 39.1156 37.3335 42.6254 37.3335 45.536C37.3335 55.696 28.7692 63.5663 18.6668 63.5663C8.56448 63.5663 0.00016284 55.696 0.00016284 45.536C0.00016284 42.6254 1.26311 39.1156 2.57201 36.0933C3.97469 32.8544 5.81073 29.3495 7.59724 26.1662C9.39221 22.9678 11.181 20.0166 12.5178 17.8696C13.1873 16.7942 13.7462 15.9161 14.1395 15.3042C14.3362 14.9982 14.4916 14.7585 14.5988 14.5938L14.7228 14.4039L14.7562 14.353L14.7654 14.339L14.7681 14.3349L14.769 14.3335C14.7693 14.3331 14.7696 14.3327 18.6668 16.8996Z" fill="white"/>
</g>
</svg>
